<svg width="99" height="35" viewBox="0 0 99 35" fill="none" xmlns="http://www.w3.org/2000/svg">
<path d="M7.456 10.92V15.464H14.784V19.688H7.456V24.616H15.744V29H1.984V6.536H15.744V10.92H7.456ZM39.2005 10.952C41.4192 10.952 43.1792 11.624 44.4805 12.968C45.8032 14.312 46.4645 16.1787 46.4645 18.568V29H41.0245V19.304C41.0245 18.152 40.7152 17.2667 40.0965 16.648C39.4992 16.008 38.6672 15.688 37.6005 15.688C36.5338 15.688 35.6912 16.008 35.0725 16.648C34.4752 17.2667 34.1765 18.152 34.1765 19.304V29H28.7365V19.304C28.7365 18.152 28.4272 17.2667 27.8085 16.648C27.2112 16.008 26.3792 15.688 25.3125 15.688C24.2458 15.688 23.4032 16.008 22.7845 16.648C22.1872 17.2667 21.8885 18.152 21.8885 19.304V29H16.4165V11.144H21.8885V13.384C22.4432 12.6373 23.1685 12.0507 24.0645 11.624C24.9605 11.176 25.9738 10.952 27.1045 10.952C28.4485 10.952 29.6432 11.24 30.6885 11.816C31.7552 12.392 32.5872 13.2133 33.1845 14.28C33.8032 13.2987 34.6458 12.4987 35.7125 11.88C36.7792 11.2613 37.9418 10.952 39.2005 10.952ZM70.1955 10.952C72.4142 10.952 74.1742 11.624 75.4755 12.968C76.7982 14.312 77.4595 16.1787 77.4595 18.568V29H72.0195V19.304C72.0195 18.152 71.7102 17.2667 71.0915 16.648C70.4942 16.008 69.6622 15.688 68.5955 15.688C67.5288 15.688 66.6862 16.008 66.0675 16.648C65.4702 17.2667 65.1715 18.152 65.1715 19.304V29H59.7315V19.304C59.7315 18.152 59.4222 17.2667 58.8035 16.648C58.2062 16.008 57.3742 15.688 56.3075 15.688C55.2408 15.688 54.3982 16.008 53.7795 16.648C53.1822 17.2667 52.8835 18.152 52.8835 19.304V29H47.4115V11.144H52.8835V13.384C53.4382 12.6373 54.1635 12.0507 55.0595 11.624C55.9555 11.176 56.9688 10.952 58.0995 10.952C59.4435 10.952 60.6382 11.24 61.6835 11.816C62.7502 12.392 63.5822 13.2133 64.1795 14.28C64.7982 13.2987 65.6408 12.4987 66.7075 11.88C67.7742 11.2613 68.9368 10.952 70.1955 10.952ZM77.3185 20.04C77.3185 18.2053 77.6598 16.5947 78.3425 15.208C79.0465 13.8213 79.9958 12.7547 81.1905 12.008C82.3852 11.2613 83.7185 10.888 85.1905 10.888C86.4492 10.888 87.5478 11.144 88.4865 11.656C89.4465 12.168 90.1825 12.84 90.6945 13.672V11.144H96.1665V29H90.6945V26.472C90.1612 27.304 89.4145 27.976 88.4545 28.488C87.5158 29 86.4172 29.256 85.1585 29.256C83.7078 29.256 82.3852 28.8827 81.1905 28.136C79.9958 27.368 79.0465 26.2907 78.3425 24.904C77.6598 23.496 77.3185 21.8747 77.3185 20.04ZM90.6945 20.072C90.6945 18.7067 90.3105 17.6293 89.5425 16.84C88.7958 16.0507 87.8785 15.656 86.7905 15.656C85.7025 15.656 84.7745 16.0507 84.0065 16.84C83.2598 17.608 82.8865 18.6747 82.8865 20.04C82.8865 21.4053 83.2598 22.4933 84.0065 23.304C84.7745 24.0933 85.7025 24.488 86.7905 24.488C87.8785 24.488 88.7958 24.0933 89.5425 23.304C90.3105 22.5147 90.6945 21.4373 90.6945 20.072Z" fill="#9F5FFE"/>
</svg>
