<svg width="96" height="24" viewBox="0 0 96 24" fill="none" xmlns="http://www.w3.org/2000/svg">
<path d="M6.456 4.92V9.464H13.784V13.688H6.456V18.616H14.744V23H0.984V0.535999H14.744V4.92H6.456ZM38.2005 4.952C40.4192 4.952 42.1792 5.624 43.4805 6.968C44.8032 8.312 45.4645 10.1787 45.4645 12.568V23H40.0245V13.304C40.0245 12.152 39.7152 11.2667 39.0965 10.648C38.4992 10.008 37.6672 9.688 36.6005 9.688C35.5338 9.688 34.6912 10.008 34.0725 10.648C33.4752 11.2667 33.1765 12.152 33.1765 13.304V23H27.7365V13.304C27.7365 12.152 27.4272 11.2667 26.8085 10.648C26.2112 10.008 25.3792 9.688 24.3125 9.688C23.2458 9.688 22.4032 10.008 21.7845 10.648C21.1872 11.2667 20.8885 12.152 20.8885 13.304V23H15.4165V5.144H20.8885V7.384C21.4432 6.63733 22.1685 6.05067 23.0645 5.624C23.9605 5.176 24.9738 4.952 26.1045 4.952C27.4485 4.952 28.6432 5.24 29.6885 5.816C30.7552 6.392 31.5872 7.21333 32.1845 8.28C32.8032 7.29867 33.6458 6.49867 34.7125 5.88C35.7792 5.26133 36.9418 4.952 38.2005 4.952ZM69.1955 4.952C71.4142 4.952 73.1742 5.624 74.4755 6.968C75.7982 8.312 76.4595 10.1787 76.4595 12.568V23H71.0195V13.304C71.0195 12.152 70.7102 11.2667 70.0915 10.648C69.4942 10.008 68.6622 9.688 67.5955 9.688C66.5288 9.688 65.6862 10.008 65.0675 10.648C64.4702 11.2667 64.1715 12.152 64.1715 13.304V23H58.7315V13.304C58.7315 12.152 58.4222 11.2667 57.8035 10.648C57.2062 10.008 56.3742 9.688 55.3075 9.688C54.2408 9.688 53.3982 10.008 52.7795 10.648C52.1822 11.2667 51.8835 12.152 51.8835 13.304V23H46.4115V5.144H51.8835V7.384C52.4382 6.63733 53.1635 6.05067 54.0595 5.624C54.9555 5.176 55.9688 4.952 57.0995 4.952C58.4435 4.952 59.6382 5.24 60.6835 5.816C61.7502 6.392 62.5822 7.21333 63.1795 8.28C63.7982 7.29867 64.6408 6.49867 65.7075 5.88C66.7742 5.26133 67.9368 4.952 69.1955 4.952ZM76.3185 14.04C76.3185 12.2053 76.6598 10.5947 77.3425 9.208C78.0465 7.82133 78.9958 6.75467 80.1905 6.008C81.3852 5.26133 82.7185 4.888 84.1905 4.888C85.4492 4.888 86.5478 5.144 87.4865 5.656C88.4465 6.168 89.1825 6.84 89.6945 7.672V5.144H95.1665V23H89.6945V20.472C89.1612 21.304 88.4145 21.976 87.4545 22.488C86.5158 23 85.4172 23.256 84.1585 23.256C82.7078 23.256 81.3852 22.8827 80.1905 22.136C78.9958 21.368 78.0465 20.2907 77.3425 18.904C76.6598 17.496 76.3185 15.8747 76.3185 14.04ZM89.6945 14.072C89.6945 12.7067 89.3105 11.6293 88.5425 10.84C87.7958 10.0507 86.8785 9.656 85.7905 9.656C84.7025 9.656 83.7745 10.0507 83.0065 10.84C82.2598 11.608 81.8865 12.6747 81.8865 14.04C81.8865 15.4053 82.2598 16.4933 83.0065 17.304C83.7745 18.0933 84.7025 18.488 85.7905 18.488C86.8785 18.488 87.7958 18.0933 88.5425 17.304C89.3105 16.5147 89.6945 15.4373 89.6945 14.072Z" fill="#8A38F5"/>
</svg>
