<svg width="19" height="20" viewBox="0 0 19 20" fill="none" xmlns="http://www.w3.org/2000/svg">
<path d="M1 3.5C1 2.39543 1.89543 1.5 3 1.5H6C7.10457 1.5 8 2.39543 8 3.5V6.5C8 7.60457 7.10457 8.5 6 8.5H3C1.89543 8.5 1 7.60457 1 6.5V3.5Z" stroke="#363538" stroke-width="1.5" stroke-linejoin="round"/>
<path d="M11 3.5C11 2.39543 11.8954 1.5 13 1.5H16C17.1046 1.5 18 2.39543 18 3.5V6.5C18 7.60457 17.1046 8.5 16 8.5H13C11.8954 8.5 11 7.60457 11 6.5V3.5Z" stroke="#363538" stroke-width="1.5" stroke-linejoin="round"/>
<path d="M11 13.5C11 12.3954 11.8954 11.5 13 11.5H16C17.1046 11.5 18 12.3954 18 13.5V16.5C18 17.6046 17.1046 18.5 16 18.5H13C11.8954 18.5 11 17.6046 11 16.5V13.5Z" stroke="#363538" stroke-width="1.5" stroke-linejoin="round"/>
<path d="M1 13.5C1 12.3954 1.89543 11.5 3 11.5H6C7.10457 11.5 8 12.3954 8 13.5V16.5C8 17.6046 7.10457 18.5 6 18.5H3C1.89543 18.5 1 17.6046 1 16.5V13.5Z" stroke="#363538" stroke-width="1.5" stroke-linejoin="round"/>
</svg>
