<svg width="16" height="20" viewBox="0 0 16 20" fill="none" xmlns="http://www.w3.org/2000/svg">
<path d="M4 5.88086H12M4 9.88086H12M4 13.8809H7M10 13.8809H12M5.49642 18.3079L6.81824 18.8744C7.57289 19.1978 8.42711 19.1978 9.18176 18.8744L10.5036 18.3079C11.1054 18.05 11.8036 18.1844 12.2666 18.6474C13.2753 19.6561 15 18.9417 15 17.5152V3.88086C15 2.22401 13.6569 0.880859 12 0.880859H4C2.34315 0.880859 1 2.224 1 3.88086V17.5152C1 18.9417 2.72473 19.6561 3.73344 18.6474C4.19642 18.1844 4.89462 18.05 5.49642 18.3079Z" stroke="#363538" stroke-width="1.5" stroke-linecap="round" stroke-linejoin="round"/>
</svg>
