<svg width="20" height="16" viewBox="0 0 20 16" fill="none" xmlns="http://www.w3.org/2000/svg">
<path d="M4 15H16M4 15C2.34315 15 1 13.6569 1 12M4 15C4 13.3431 2.65685 12 1 12M1 12V4M19 12V4M19 12C19 13.6569 17.6569 15 16 15M19 12C17.3431 12 16 13.3431 16 15M16 1H4M16 1C17.6569 1 19 2.34315 19 4M16 1C16 2.65685 17.3431 4 19 4M4 1C2.34315 1 1 2.34315 1 4M4 1C4 2.65685 2.65685 4 1 4M13 8C13 9.10457 11.6569 10 10 10C8.34315 10 7 9.10457 7 8C7 6.89543 8.34315 6 10 6C11.6569 6 13 6.89543 13 8Z" stroke="#363538" stroke-width="1.5"/>
</svg>
