<svg width="18" height="18" viewBox="0 0 18 18" fill="none" xmlns="http://www.w3.org/2000/svg">
<circle cx="9" cy="9" r="9" fill="#9F5FFE" fill-opacity="0.2"/>
<path d="M7.8608 10.9545V10.9119C7.86553 10.4598 7.91288 10.0999 8.00284 9.83239C8.0928 9.56487 8.22064 9.34825 8.38636 9.18253C8.55208 9.01681 8.75095 8.86411 8.98295 8.72443C9.12263 8.6392 9.24811 8.53859 9.35938 8.42259C9.47064 8.30421 9.55824 8.16809 9.62216 8.0142C9.68845 7.86032 9.72159 7.68987 9.72159 7.50284C9.72159 7.27083 9.66714 7.0696 9.55824 6.89915C9.44934 6.72869 9.30374 6.5973 9.12145 6.50497C8.93916 6.41264 8.73674 6.36648 8.5142 6.36648C8.32008 6.36648 8.13305 6.40672 7.95312 6.48722C7.7732 6.56771 7.62287 6.69437 7.50213 6.86719C7.38139 7.04001 7.31155 7.2661 7.29261 7.54545H6.39773C6.41667 7.14299 6.52083 6.79853 6.71023 6.51207C6.90199 6.22562 7.15412 6.00663 7.46662 5.85511C7.78149 5.7036 8.13068 5.62784 8.5142 5.62784C8.93087 5.62784 9.29309 5.7107 9.60085 5.87642C9.91098 6.04214 10.1501 6.26941 10.3182 6.55824C10.4886 6.84706 10.5739 7.17614 10.5739 7.54545C10.5739 7.80587 10.5336 8.04143 10.4531 8.25213C10.375 8.46283 10.2614 8.65104 10.1122 8.81676C9.96544 8.98248 9.78788 9.12926 9.57955 9.2571C9.37121 9.38731 9.20431 9.52462 9.07884 9.66903C8.95336 9.81108 8.86222 9.98035 8.8054 10.1768C8.74858 10.3733 8.7178 10.6184 8.71307 10.9119V10.9545H7.8608ZM8.31534 13.0568C8.14015 13.0568 7.98982 12.9941 7.86435 12.8686C7.73887 12.7431 7.67614 12.5928 7.67614 12.4176C7.67614 12.2424 7.73887 12.0921 7.86435 11.9666C7.98982 11.8411 8.14015 11.7784 8.31534 11.7784C8.49053 11.7784 8.64086 11.8411 8.76634 11.9666C8.89181 12.0921 8.95455 12.2424 8.95455 12.4176C8.95455 12.5336 8.92495 12.6402 8.86577 12.7372C8.80895 12.8343 8.73201 12.9124 8.63494 12.9716C8.54025 13.0284 8.43371 13.0568 8.31534 13.0568Z" fill="#8A38F5"/>
</svg>
