<svg width="20" height="12" viewBox="0 0 20 12" fill="none" xmlns="http://www.w3.org/2000/svg">
<path d="M16.29 0C15.4449 0 15.0217 1.02172 15.6193 1.61927C15.9897 1.98971 15.9897 2.59029 15.6193 2.96073L13.4093 5.17068C12.3051 6.27487 10.5149 6.27487 9.41067 5.17067C8.30595 4.06595 6.51465 4.06656 5.41067 5.17202L0.704287 9.88476C0.315243 10.2743 0.315456 10.9055 0.704762 11.2948C1.09425 11.6843 1.72575 11.6843 2.11524 11.2948L5.4092 8.0008C6.51421 6.89579 8.30579 6.89579 9.41079 8.00079C10.5152 9.10518 12.3055 9.10589 13.4108 8.00238L17.0391 4.37982C17.4097 4.0098 18.01 4.01004 18.3803 4.38035C18.978 4.97804 20 4.55473 20 3.70947V1.75736C20 0.786797 19.2132 0 18.2426 0H16.29Z" fill="#18FFDD"/>
</svg>
